<svg width="1408" height="1408" xmlns="http://www.w3.org/2000/svg" class="icon">

 <g>
  <title>background</title>
  <rect fill="none" id="canvas_background" height="1410" width="1410" y="-1" x="-1"/>
 </g>
 <g>
  <title>Layer 1</title>
  <path id="svg_1" fill="#1296db" d="m620.8,646.4l19.2,0c19.2,0 32,-12.8 32,-32s-12.8,-32 -32,-32l-19.2,0c-44.8,0 -76.8,-25.6 -76.8,-57.6s32,-57.6 76.8,-57.6c12.8,0 19.2,0 32,6.4c19.2,6.4 38.4,-6.4 44.8,-25.6c0,-19.2 25.6,-32 51.2,-32c32,0 51.2,19.2 51.2,38.4l0,6.4c-6.4,19.2 6.4,38.4 25.6,44.8c25.6,6.4 38.4,19.2 38.4,38.4s-25.6,38.4 -51.2,38.4l-25.6,0c-19.2,0 -32,12.8 -32,32s12.8,32 32,32l25.6,0c64,0 115.2,-44.8 115.2,-102.4c0,-38.4 -25.6,-76.8 -64,-89.6c0,-57.6 -57.6,-102.4 -115.2,-102.4c-44.8,0 -83.2,19.2 -102.4,57.6l-25.6,0c-76.8,0 -140.8,51.2 -140.8,121.6s64,115.2 140.8,115.2zm-76.8,313.6l-320,0c-19.2,0 -32,12.8 -32,32s12.8,32 32,32l320,0c19.2,0 32,-12.8 32,-32s-12.8,-32 -32,-32z"/>
  <path id="svg_2" fill="#1296db" d="m1388.8,908.8l0,-19.2l-153.6,-544c-19.2,-89.6 -102.4,-153.6 -179.2,-153.6l-704,0c-76.8,0 -160,64 -185.6,147.2l-153.6,544l0,19.2c-6.4,32 -12.8,57.6 -12.8,89.6c0,121.6 102.4,224 224,224l960,0c121.6,0 224,-102.4 224,-224c0,-32 -6.4,-57.6 -19.2,-83.2zm-1158.4,-550.4c12.8,-57.6 70.4,-102.4 121.6,-102.4l704,0c51.2,0 102.4,44.8 121.6,102.4l121.6,448c-32,-25.6 -70.4,-38.4 -115.2,-38.4l-960,0c-44.8,0 -83.2,12.8 -115.2,32l121.6,-441.6zm953.6,793.6l-960,0c-89.6,0 -160,-70.4 -160,-160c0,-12.8 0,-19.2 6.4,-32l0,-6.4c12.8,-70.4 76.8,-121.6 153.6,-121.6l960,0c76.8,0 140.8,51.2 153.6,128c0,12.8 6.4,19.2 6.4,32c0,89.6 -70.4,160 -160,160z"/>
  <path id="svg_3" fill="#1296db" d="m1120,896c-51.2,0 -96,44.8 -96,96s44.8,96 96,96s96,-44.8 96,-96s-44.8,-96 -96,-96zm0,128c-19.2,0 -32,-12.8 -32,-32s12.8,-32 32,-32s32,12.8 32,32s-12.8,32 -32,32z"/>
 </g>
</svg>